# xmcd
#
# Track frame offsets:
# 150
# 9740
# 24015
# 57770
# 83122
# 111817
# 121127
# 171135
# 183150
#
# Disc length: 2710 seconds
#
#
# Revision: 0
# Processed by: cddbd v1.5.1PL0 Copyright (c) Steve Scherf et al.
# Submitted via: FreeRIP 2.91 
#
DISCID=5f0a9409
DTITLE=Sort Of Quartet - Kiss Me Twice I'm Schitzo
DYEAR=1995
DGENRE=Instrumental
TTITLE0=Massive Head Injury
TTITLE1=Salvatrucha
TTITLE2=Aphrikon Roquor
TTITLE3=Merciful Fatso
TTITLE4=Hier Burgermeister
TTITLE5=Hard Shoe Denial
TTITLE6=I Squirt Therefore I Am
TTITLE7=Jobby Job
TTITLE8=Koo Koo Time
EXTD=Label: SST Records\nYear: 1995
EXTT0=
EXTT1=
EXTT2=
EXTT3=
EXTT4=
EXTT5=
EXTT6=
EXTT7=
EXTT8=
PLAYORDER=
